<?xml version="1.0" encoding="UTF-8" standalone="no"?>
<svg
   xmlns:dc="http://purl.org/dc/elements/1.1/"
   xmlns:cc="http://creativecommons.org/ns#"
   xmlns:rdf="http://www.w3.org/1999/02/22-rdf-syntax-ns#"
   xmlns:svg="http://www.w3.org/2000/svg"
   xmlns="http://www.w3.org/2000/svg"
   viewBox="0 0 2666.6667 2666.6667"
   height="2666.6667"
   width="2666.6667"
   xml:space="preserve"
   id="svg2"
   version="1.1"><metadata
     id="metadata8"><rdf:RDF><cc:Work
         rdf:about=""><dc:format>image/svg+xml</dc:format><dc:type
           rdf:resource="http://purl.org/dc/dcmitype/StillImage" /></cc:Work></rdf:RDF></metadata><defs
     id="defs6"><clipPath
       id="clipPath18"
       clipPathUnits="userSpaceOnUse"><path
         id="path16"
         d="M 0,2000 H 2000 V 0 H 0 Z" /></clipPath></defs><g
     transform="matrix(1.3333333,0,0,-1.3333333,0,2666.6667)"
     id="g10"><g
       id="g12"><g
         clip-path="url(#clipPath18)"
         id="g14"><g
           transform="translate(1000,421.0565)"
           id="g20"><path
             id="path22"
             style="fill:#564d9d;fill-opacity:1;fill-rule:nonzero;stroke:none"
             d="m 0,0 c -319.742,0 -578.943,259.202 -578.943,578.943 0,319.742 259.201,578.944 578.943,578.944 319.742,0 578.943,-259.202 578.943,-578.944 C 578.943,259.202 319.742,0 0,0 m 0,1194.704 c -340.075,0 -615.76,-275.685 -615.76,-615.761 0,-340.075 275.685,-615.76 615.76,-615.76 340.075,0 615.76,275.685 615.76,615.76 0,340.076 -275.685,615.761 -615.76,615.761" /></g><g
           transform="translate(1225.79,695.1924)"
           id="g24"><path
             id="path26"
             style="fill:#337abe;fill-opacity:1;fill-rule:nonzero;stroke:none"
             d="M 0,0 C 0,76.452 -29.057,131.121 -97.327,177.954 -269.23,-44.884 -581.43,70.688 -693.059,122.198 c 73.333,-187.431 255.736,-320.185 469.151,-320.185 29.888,0 59.166,2.611 87.624,7.604 C -48.795,-158.283 0,-88.996 0,0" /></g><g
           transform="translate(777.9744,1306.4249)"
           id="g28"><path
             id="path30"
             style="fill:#337abe;fill-opacity:1;fill-rule:nonzero;stroke:none"
             d="m 0,0 c 0,-76.452 29.057,-131.121 97.327,-177.954 171.904,222.838 484.104,107.266 595.732,55.756 -73.333,187.431 -255.736,320.185 -469.151,320.185 -29.888,0 -59.166,-2.611 -87.624,-7.604 C 48.795,158.283 0,88.996 0,0" /></g><g
           transform="translate(1128.457,873.1509)"
           id="g32"><path
             id="path34"
             style="fill:#564d9d;fill-opacity:1;fill-rule:nonzero;stroke:none"
             d="m 0,0 c -3.217,2.207 -6.521,4.396 -9.914,6.57 -0.016,0.01 -0.032,0.021 -0.048,0.031 -3.351,2.147 -6.789,4.278 -10.313,6.394 -0.083,0.05 -0.166,0.1 -0.249,0.15 -3.429,2.057 -6.943,4.101 -10.538,6.133 -0.209,0.118 -0.417,0.236 -0.627,0.354 -3.455,1.946 -6.99,3.882 -10.599,5.807 -0.386,0.206 -0.77,0.412 -1.158,0.617 -1.132,0.601 -2.27,1.201 -3.418,1.8 -0.301,0.157 -0.606,0.313 -0.908,0.47 -2.035,1.058 -4.095,2.112 -6.177,3.164 -0.614,0.31 -1.228,0.62 -1.846,0.93 -1.044,0.523 -2.092,1.046 -3.148,1.568 -0.769,0.38 -1.546,0.759 -2.322,1.138 -1.592,0.78 -3.197,1.558 -4.816,2.334 -0.874,0.419 -1.749,0.839 -2.631,1.257 -0.944,0.448 -1.891,0.896 -2.845,1.344 -1.215,0.57 -2.44,1.14 -3.67,1.709 -1.133,0.524 -2.274,1.048 -3.419,1.571 -1.182,0.54 -2.367,1.079 -3.562,1.617 -0.827,0.374 -1.657,0.747 -2.49,1.119 -1.607,0.718 -3.223,1.435 -4.854,2.152 -0.722,0.317 -1.45,0.634 -2.177,0.951 -1.496,0.653 -3.001,1.304 -4.517,1.956 -0.724,0.311 -1.45,0.622 -2.178,0.932 -1.921,0.82 -3.851,1.638 -5.804,2.456 -0.369,0.155 -0.743,0.309 -1.114,0.464 -1.815,0.757 -3.645,1.514 -5.487,2.27 -0.633,0.26 -1.268,0.52 -1.905,0.78 -2.126,0.868 -4.264,1.736 -6.426,2.602 -0.137,0.055 -0.277,0.11 -0.414,0.165 -2.094,0.838 -4.21,1.676 -6.338,2.513 -0.589,0.231 -1.179,0.463 -1.77,0.694 -2.255,0.883 -4.522,1.766 -6.815,2.648 -0.006,0.002 -0.011,0.004 -0.017,0.006 -56.478,20.024 -106.891,42.648 -150.183,68.683 -7.216,4.339 -14.233,8.773 -21.048,13.305 -13.63,9.065 -26.449,18.524 -38.418,28.407 -3.99,3.295 -7.885,6.636 -11.684,10.026 -3.8,3.39 -7.503,6.828 -11.109,10.315 -3.607,3.487 -7.115,7.024 -10.526,10.611 -8.525,8.969 -16.432,18.252 -23.7,27.868 -2.908,3.847 -5.712,7.747 -8.413,11.701 -2.701,3.954 -5.298,7.963 -7.79,12.027 -3.737,6.096 -7.238,12.317 -10.497,18.666 -2.173,4.233 -4.238,8.524 -6.194,12.872 -16.628,36.962 -25.387,78.134 -25.387,124.201 0,36.95 5.924,72.058 17.166,104.678 -26.804,-21.596 -51.347,-45.883 -73.224,-72.449 -71.636,-86.991 -114.657,-198.431 -114.657,-319.919 0,-64.718 12.214,-126.581 34.452,-183.418 111.629,-51.51 423.829,-167.082 595.732,55.756 C 0.004,-0.003 0.002,-0.001 0,0" /></g><g
           transform="translate(1471.0338,1184.2269)"
           id="g36"><path
             id="path38"
             style="fill:#564d9d;fill-opacity:1;fill-rule:nonzero;stroke:none"
             d="m 0,0 c -111.629,51.51 -423.829,167.082 -595.733,-55.756 0.006,-0.004 0.011,-0.008 0.017,-0.012 3.211,-2.202 6.508,-4.387 9.893,-6.556 0.022,-0.014 0.044,-0.028 0.066,-0.042 3.343,-2.142 6.773,-4.267 10.288,-6.379 0.093,-0.056 0.185,-0.112 0.278,-0.167 3.42,-2.052 6.923,-4.089 10.508,-6.115 0.219,-0.124 0.438,-0.249 0.658,-0.373 3.445,-1.94 6.968,-3.869 10.565,-5.788 0.397,-0.212 0.794,-0.424 1.193,-0.636 1.125,-0.596 2.255,-1.192 3.394,-1.787 0.327,-0.171 0.659,-0.341 0.987,-0.511 2.004,-1.041 4.033,-2.08 6.084,-3.116 0.627,-0.317 1.253,-0.633 1.884,-0.949 1.037,-0.52 2.078,-1.039 3.127,-1.558 0.79,-0.39 1.587,-0.779 2.383,-1.168 1.565,-0.766 3.143,-1.531 4.734,-2.294 0.888,-0.426 1.778,-0.852 2.675,-1.278 0.935,-0.444 1.873,-0.887 2.817,-1.33 1.241,-0.583 2.491,-1.164 3.748,-1.745 1.1,-0.509 2.208,-1.018 3.321,-1.526 1.197,-0.547 2.399,-1.094 3.611,-1.64 0.818,-0.369 1.638,-0.738 2.462,-1.106 1.618,-0.724 3.247,-1.446 4.89,-2.168 0.708,-0.311 1.423,-0.622 2.136,-0.933 1.507,-0.657 3.022,-1.314 4.549,-1.97 0.714,-0.306 1.429,-0.613 2.148,-0.919 1.946,-0.83 3.902,-1.66 5.88,-2.489 0.334,-0.139 0.673,-0.279 1.008,-0.418 1.835,-0.767 3.686,-1.532 5.55,-2.297 0.621,-0.255 1.244,-0.51 1.869,-0.765 2.136,-0.872 4.283,-1.744 6.455,-2.614 0.116,-0.046 0.234,-0.093 0.349,-0.139 2.118,-0.848 4.258,-1.695 6.411,-2.542 0.576,-0.226 1.153,-0.453 1.731,-0.679 2.267,-0.888 4.546,-1.775 6.852,-2.662 21.963,-7.787 43.01,-15.967 63.077,-24.588 2.867,-1.232 5.713,-2.472 8.54,-3.722 11.306,-4.999 22.29,-10.144 32.939,-15.444 5.325,-2.65 10.566,-5.339 15.722,-8.068 18.047,-9.551 35.051,-19.59 50.953,-30.166 6.815,-4.532 13.427,-9.163 19.831,-13.896 6.405,-4.733 12.602,-9.569 18.587,-14.511 3.989,-3.294 7.884,-6.636 11.684,-10.025 5.699,-5.085 11.182,-10.278 16.445,-15.584 14.034,-14.148 26.499,-29.095 37.303,-44.911 5.402,-7.909 10.388,-16.035 14.947,-24.387 2.28,-4.176 4.453,-8.409 6.518,-12.699 18.583,-38.614 28.402,-81.904 28.402,-130.68 v 0 c 0,-36.95 -5.924,-72.058 -17.165,-104.678 26.804,21.596 51.347,45.883 73.223,72.449 71.636,86.991 114.657,198.43 114.657,319.919 C 34.451,-118.701 22.238,-56.838 0,0" /></g></g></g></g></svg>